# Track frame offsets:
#       150
#       18265
#       32945
#       49812
# Disc length: 3603 seconds
#
